<?xml version="1.0" encoding="UTF-8" standalone="no"?>
<!DOCTYPE svg PUBLIC "-//W3C//DTD SVG 1.0//EN" "http://www.w3.org/TR/2001/PR-SVG-20010719/DTD/svg10.dtd">
<svg width="51cm" height="37cm" viewBox="40 0 1016 733" xmlns="http://www.w3.org/2000/svg" xmlns:xlink="http://www.w3.org/1999/xlink">
  <g>
    <path style="fill: #ffffff" d="M 130.25 3 L 175.75,3 C 182.032,3 187.125,11.9543 187.125,23 C 187.125,34.0457 182.032,43 175.75,43 L 130.25,43 C 123.968,43 118.875,34.0457 118.875,23 C 118.875,11.9543 123.968,3 130.25,3z"/>
    <path style="fill: none; fill-opacity:0; stroke-width: 3; stroke: #000000" d="M 130.25 3 L 175.75,3 C 182.032,3 187.125,11.9543 187.125,23 C 187.125,34.0457 182.032,43 175.75,43 L 130.25,43 C 123.968,43 118.875,34.0457 118.875,23 C 118.875,11.9543 123.968,3 130.25,3"/>
    <text font-size="12.8" style="fill: #000000;text-anchor:middle;font-family:monospace;font-style:normal;font-weight:normal" x="153" y="27">
      <tspan x="153" y="27">Start</tspan>
    </text>
  </g>
  <g>
    <polygon style="fill: #ffffff" points="105.335,69.5 230.506,69.5 204.664,140.5 79.4936,140.5 "/>
    <polygon style="fill: none; fill-opacity:0; stroke-width: 3; stroke: #000000" points="105.335,69.5 230.506,69.5 204.664,140.5 79.4936,140.5 "/>
    <text font-size="12.8" style="fill: #000000;text-anchor:middle;font-family:monospace;font-style:normal;font-weight:normal" x="155" y="92.9">
      <tspan x="155" y="92.9">take</tspan>
      <tspan x="155" y="108.9">image and </tspan>
      <tspan x="155" y="124.9">window_size</tspan>
    </text>
  </g>
  <g>
    <polygon style="fill: #ffffff" points="134.643,327.9 224.174,399.07 134.643,470.241 45.1124,399.07 "/>
    <polygon style="fill: none; fill-opacity:0; stroke-width: 3; stroke: #000000" points="134.643,327.9 224.174,399.07 134.643,470.241 45.1124,399.07 "/>
    <text font-size="12.8" style="fill: #000000;text-anchor:middle;font-family:monospace;font-style:normal;font-weight:normal" x="134.643" y="394.97">
      <tspan x="134.643" y="394.97">k1 =</tspan>
      <tspan x="134.643" y="410.97">window_size/2</tspan>
    </text>
  </g>
  <g>
    <line style="fill: none; fill-opacity:0; stroke-width: 2; stroke: #000000" x1="153.524" y1="44.481" x2="153.86" y2="58.2607"/>
    <polygon style="fill: #000000" points="154.043,65.7585 148.801,55.8834 153.86,58.2607 158.798,55.6396 "/>
    <polygon style="fill: none; fill-opacity:0; stroke-width: 2; stroke: #000000" points="154.043,65.7585 148.801,55.8834 153.86,58.2607 158.798,55.6396 "/>
  </g>
  <g>
    <rect style="fill: #ffffff" x="69.8874" y="168" width="137.5" height="57"/>
    <rect style="fill: none; fill-opacity:0; stroke-width: 2; stroke: #000000" x="69.8874" y="168" width="137.5" height="57"/>
    <text font-size="12.8" style="fill: #000000;text-anchor:middle;font-family:monospace;font-style:normal;font-weight:normal" x="138.637" y="192.4">
      <tspan x="138.637" y="192.4">y_pix, x_pix = </tspan>
      <tspan x="138.637" y="208.4">image size</tspan>
    </text>
  </g>
  <g>
    <line style="fill: none; fill-opacity:0; stroke-width: 2; stroke: #000000" x1="148.383" y1="142.004" x2="145.626" y2="157.417"/>
    <polygon style="fill: #000000" points="144.306,164.8 141.144,154.076 145.626,157.417 150.988,155.837 "/>
    <polygon style="fill: none; fill-opacity:0; stroke-width: 2; stroke: #000000" points="144.306,164.8 141.144,154.076 145.626,157.417 150.988,155.837 "/>
  </g>
  <text font-size="12.8" style="fill: #000000;text-anchor:start;font-family:monospace;font-style:normal;font-weight:normal" x="155" y="105">
    <tspan x="155" y="105"></tspan>
  </text>
  <g>
    <rect style="fill: #ffffff" x="56.7" y="250" width="160.6" height="54"/>
    <rect style="fill: none; fill-opacity:0; stroke-width: 2; stroke: #000000" x="56.7" y="250" width="160.6" height="54"/>
    <text font-size="12.8" style="fill: #000000;text-anchor:middle;font-family:monospace;font-style:normal;font-weight:normal" x="137" y="272.9">
      <tspan x="137" y="272.9">k1 = </tspan>
      <tspan x="137" y="288.9">int(window_size/2)</tspan>
    </text>
  </g>
  <g>
    <line style="fill: none; fill-opacity:0; stroke-width: 2; stroke: #000000" x1="138.637" y1="225" x2="137.636" y2="240.285"/>
    <polygon style="fill: #000000" points="137.146,247.769 132.81,237.463 137.636,240.285 142.789,238.117 "/>
    <polygon style="fill: none; fill-opacity:0; stroke-width: 2; stroke: #000000" points="137.146,247.769 132.81,237.463 137.636,240.285 142.789,238.117 "/>
  </g>
  <g>
    <line style="fill: none; fill-opacity:0; stroke-width: 2; stroke: #000000" x1="137" y1="304" x2="135.599" y2="318.211"/>
    <polygon style="fill: #000000" points="134.863,325.675 130.868,315.232 135.599,318.211 140.82,316.214 "/>
    <polygon style="fill: none; fill-opacity:0; stroke-width: 2; stroke: #000000" points="134.863,325.675 130.868,315.232 135.599,318.211 140.82,316.214 "/>
  </g>
  <g>
    <rect style="fill: #ffffff" x="184.65" y="492" width="106.7" height="38"/>
    <rect style="fill: none; fill-opacity:0; stroke-width: 2; stroke: #000000" x="184.65" y="492" width="106.7" height="38"/>
    <text font-size="12.8" style="fill: #000000;text-anchor:middle;font-family:monospace;font-style:normal;font-weight:normal" x="238" y="514.9">
      <tspan x="238" y="514.9">k2 = k1 - 1</tspan>
    </text>
  </g>
  <g>
    <rect style="fill: #ffffff" x="97.05" y="495" width="75.9" height="38"/>
    <rect style="fill: none; fill-opacity:0; stroke-width: 2; stroke: #000000" x="97.05" y="495" width="75.9" height="38"/>
    <text font-size="12.8" style="fill: #000000;text-anchor:middle;font-family:monospace;font-style:normal;font-weight:normal" x="135" y="517.9">
      <tspan x="135" y="517.9">k2 = k1</tspan>
    </text>
  </g>
  <g>
    <rect style="fill: #ffffff" x="83.125" y="571" width="103.75" height="40"/>
    <rect style="fill: none; fill-opacity:0; stroke-width: 2; stroke: #000000" x="83.125" y="571" width="103.75" height="40"/>
    <line style="fill: none; fill-opacity:0; stroke-width: 2; stroke: #000000" x1="93.5" y1="571" x2="93.5" y2="611"/>
    <line style="fill: none; fill-opacity:0; stroke-width: 2; stroke: #000000" x1="176.5" y1="571" x2="176.5" y2="611"/>
    <text font-size="12.8" style="fill: #000000;text-anchor:middle;font-family:monospace;font-style:normal;font-weight:normal" x="135" y="587">
      <tspan x="135" y="587">normals = </tspan>
      <tspan x="135" y="603">pnd(image)</tspan>
    </text>
  </g>
  <g>
    <line style="fill: none; fill-opacity:0; stroke-width: 2; stroke: #000000" x1="134.643" y1="470.242" x2="134.86" y2="485.265"/>
    <polygon style="fill: #000000" points="134.968,492.764 129.824,482.837 134.86,485.265 139.823,482.693 "/>
    <polygon style="fill: none; fill-opacity:0; stroke-width: 2; stroke: #000000" points="134.968,492.764 129.824,482.837 134.86,485.265 139.823,482.693 "/>
  </g>
  <g>
    <rect style="fill: #ffffff" x="41.9124" y="642.5" width="186.175" height="70"/>
    <rect style="fill: none; fill-opacity:0; stroke-width: 2; stroke: #000000" x="41.9124" y="642.5" width="186.175" height="70"/>
    <text font-size="12.8" style="fill: #000000;text-anchor:middle;font-family:monospace;font-style:normal;font-weight:normal" x="135" y="665.4">
      <tspan x="135" y="665.4">tangents = </tspan>
      <tspan x="135" y="681.4">empty y_pix X x_pix</tspan>
      <tspan x="135" y="697.4">array</tspan>
    </text>
  </g>
  <text font-size="12.8" style="fill: #000000;text-anchor:start;font-family:monospace;font-style:normal;font-weight:normal" x="135" y="677.5">
    <tspan x="135" y="677.5"></tspan>
  </text>
  <text font-size="12.8" style="fill: #000000;text-anchor:start;font-family:monospace;font-style:normal;font-weight:normal" x="137" y="277">
    <tspan x="137" y="277"></tspan>
  </text>
  <text font-size="12.8" style="fill: #000000;text-anchor:start;font-family:monospace;font-style:normal;font-weight:normal" x="-82" y="653.5">
    <tspan x="-82" y="653.5"></tspan>
  </text>
  <g>
    <path style="fill: #ffffff" d="M 392.61 1 L 606.51,1 L 649.29,36 L 606.51,71 L 392.61,71 L 349.83,36 L 392.61,1z"/>
    <path style="fill: none; fill-opacity:0; stroke-width: 2; stroke: #000000" d="M 392.61 1 L 606.51,1 L 649.29,36 L 606.51,71 L 392.61,71 L 349.83,36 L 392.61,1"/>
    <text font-size="12.8" style="fill: #000000;text-anchor:middle;font-family:monospace;font-style:normal;font-weight:normal" x="499.56" y="24">
      <tspan x="499.56" y="24">For each</tspan>
      <tspan x="499.56" y="40">pixel (called currentPixel)</tspan>
      <tspan x="499.56" y="56">in the image</tspan>
    </text>
  </g>
  <g>
    <rect style="fill: #ffffff" x="396.6" y="116" width="206.8" height="102"/>
    <rect style="fill: none; fill-opacity:0; stroke-width: 2; stroke: #000000" x="396.6" y="116" width="206.8" height="102"/>
    <text font-size="12.8" style="fill: #000000;text-anchor:middle;font-family:monospace;font-style:normal;font-weight:normal" x="500" y="138.9">
      <tspan x="500" y="138.9">window = array</tspan>
      <tspan x="500" y="154.9">of normals at each point</tspan>
      <tspan x="500" y="170.9">on a square window of </tspan>
      <tspan x="500" y="186.9">window_size centered on</tspan>
      <tspan x="500" y="202.9">current_pixel</tspan>
    </text>
  </g>
  <text font-size="12.8" style="fill: #000000;text-anchor:start;font-family:monospace;font-style:normal;font-weight:normal" x="542.34" y="36">
    <tspan x="542.34" y="36"></tspan>
  </text>
  <g>
    <rect style="fill: #ffffff" x="385.562" y="259" width="228.875" height="40"/>
    <rect style="fill: none; fill-opacity:0; stroke-width: 2; stroke: #000000" x="385.562" y="259" width="228.875" height="40"/>
    <line style="fill: none; fill-opacity:0; stroke-width: 2; stroke: #000000" x1="408.449" y1="259" x2="408.449" y2="299"/>
    <line style="fill: none; fill-opacity:0; stroke-width: 2; stroke: #000000" x1="591.549" y1="259" x2="591.549" y2="299"/>
    <text font-size="12.8" style="fill: #000000;text-anchor:middle;font-family:monospace;font-style:normal;font-weight:normal" x="500" y="283">
      <tspan x="500" y="283">A = sum(window[0] ^ 2 )</tspan>
    </text>
  </g>
  <text font-size="12.8" style="fill: #000000;text-anchor:start;font-family:monospace;font-style:normal;font-weight:normal" x="500" y="279">
    <tspan x="500" y="279"></tspan>
  </text>
  <g>
    <rect style="fill: #ffffff" x="387.308" y="318.7" width="228.875" height="33.3"/>
    <rect style="fill: none; fill-opacity:0; stroke-width: 2; stroke: #000000" x="387.308" y="318.7" width="228.875" height="33.3"/>
    <line style="fill: none; fill-opacity:0; stroke-width: 2; stroke: #000000" x1="410.196" y1="318.7" x2="410.196" y2="352"/>
    <line style="fill: none; fill-opacity:0; stroke-width: 2; stroke: #000000" x1="593.295" y1="318.7" x2="593.295" y2="352"/>
    <text font-size="12.8" style="fill: #000000;text-anchor:middle;font-family:monospace;font-style:normal;font-weight:normal" x="501.745" y="339.35">
      <tspan x="501.745" y="339.35">B = sum(window[1] ^ 2 )</tspan>
    </text>
  </g>
  <text font-size="12.8" style="fill: #000000;text-anchor:start;font-family:monospace;font-style:normal;font-weight:normal" x="501.746" y="335.35">
    <tspan x="501.746" y="335.35"></tspan>
  </text>
  <g>
    <rect style="fill: #ffffff" x="353.966" y="378" width="296.25" height="40"/>
    <rect style="fill: none; fill-opacity:0; stroke-width: 2; stroke: #000000" x="353.966" y="378" width="296.25" height="40"/>
    <line style="fill: none; fill-opacity:0; stroke-width: 2; stroke: #000000" x1="383.591" y1="378" x2="383.591" y2="418"/>
    <line style="fill: none; fill-opacity:0; stroke-width: 2; stroke: #000000" x1="620.591" y1="378" x2="620.591" y2="418"/>
    <text font-size="12.8" style="fill: #000000;text-anchor:middle;font-family:monospace;font-style:normal;font-weight:normal" x="502.091" y="402">
      <tspan x="502.091" y="402">C = sum(window[0] X window[1])</tspan>
    </text>
  </g>
  <g>
    <line style="fill: none; fill-opacity:0; stroke-width: 2; stroke: #000000" x1="501.746" y1="352" x2="501.861" y2="367.274"/>
    <polygon style="fill: #000000" points="501.917,374.774 496.842,364.812 501.861,367.274 506.842,364.737 "/>
    <polygon style="fill: none; fill-opacity:0; stroke-width: 2; stroke: #000000" points="501.917,374.774 496.842,364.812 501.861,367.274 506.842,364.737 "/>
  </g>
  <g>
    <line style="fill: none; fill-opacity:0; stroke-width: 2; stroke: #000000" x1="500" y1="299" x2="500.886" y2="309.002"/>
    <polygon style="fill: #000000" points="501.549,316.473 495.685,306.953 500.886,309.002 505.646,306.07 "/>
    <polygon style="fill: none; fill-opacity:0; stroke-width: 2; stroke: #000000" points="501.549,316.473 495.685,306.953 500.886,309.002 505.646,306.07 "/>
  </g>
  <g>
    <rect style="fill: #ffffff" x="397.562" y="442" width="209.625" height="40"/>
    <rect style="fill: none; fill-opacity:0; stroke-width: 2; stroke: #000000" x="397.562" y="442" width="209.625" height="40"/>
    <line style="fill: none; fill-opacity:0; stroke-width: 2; stroke: #000000" x1="418.524" y1="442" x2="418.524" y2="482"/>
    <line style="fill: none; fill-opacity:0; stroke-width: 2; stroke: #000000" x1="586.224" y1="442" x2="586.224" y2="482"/>
    <text font-size="12.8" style="fill: #000000;text-anchor:middle;font-family:monospace;font-style:normal;font-weight:normal" x="502.374" y="466">
      <tspan x="502.374" y="466">mn1 = mean(window[0])</tspan>
    </text>
  </g>
  <g>
    <line style="fill: none; fill-opacity:0; stroke-width: 2; stroke: #000000" x1="502.092" y1="418" x2="502.177" y2="431.274"/>
    <polygon style="fill: #000000" points="502.225,438.774 497.161,428.806 502.177,431.274 507.161,428.742 "/>
    <polygon style="fill: none; fill-opacity:0; stroke-width: 2; stroke: #000000" points="502.225,438.774 497.161,428.806 502.177,431.274 507.161,428.742 "/>
  </g>
  <g>
    <polygon style="fill: #ffffff" points="503.379,508.268 562.842,538 503.379,567.731 443.916,538 "/>
    <polygon style="fill: none; fill-opacity:0; stroke-width: 2; stroke: #000000" points="503.379,508.268 562.842,538 503.379,567.731 443.916,538 "/>
    <text font-size="12.8" style="fill: #000000;text-anchor:middle;font-family:monospace;font-style:normal;font-weight:normal" x="503.379" y="541.9">
      <tspan x="503.379" y="541.9">C = 0</tspan>
    </text>
  </g>
  <g>
    <line style="fill: none; fill-opacity:0; stroke-width: 2; stroke: #000000" x1="502.374" y1="482" x2="503.006" y2="498.539"/>
    <polygon style="fill: #000000" points="503.293,506.034 497.914,496.232 503.006,498.539 507.907,495.85 "/>
    <polygon style="fill: none; fill-opacity:0; stroke-width: 2; stroke: #000000" points="503.293,506.034 497.914,496.232 503.006,498.539 507.907,495.85 "/>
  </g>
  <g>
    <polygon style="fill: #ffffff" points="724.379,509.268 783.842,539 724.379,568.731 664.916,539 "/>
    <polygon style="fill: none; fill-opacity:0; stroke-width: 2; stroke: #000000" points="724.379,509.268 783.842,539 724.379,568.731 664.916,539 "/>
    <text font-size="12.8" style="fill: #000000;text-anchor:middle;font-family:monospace;font-style:normal;font-weight:normal" x="724.379" y="542.9">
      <tspan x="724.379" y="542.9">A &gt; B</tspan>
    </text>
  </g>
  <g>
    <line style="fill: none; fill-opacity:0; stroke-width: 2; stroke: #000000" x1="562.842" y1="538" x2="655.18" y2="538.905"/>
    <polygon style="fill: #000000" points="662.68,538.978 652.632,543.88 655.18,538.905 652.73,533.88 "/>
    <polygon style="fill: none; fill-opacity:0; stroke-width: 2; stroke: #000000" points="662.68,538.978 652.632,543.88 655.18,538.905 652.73,533.88 "/>
  </g>
  <g>
    <polygon style="fill: #ffffff" points="723.323,595.22 786.315,623.6 723.323,651.98 660.33,623.6 "/>
    <polygon style="fill: none; fill-opacity:0; stroke-width: 2; stroke: #000000" points="723.323,595.22 786.315,623.6 723.323,651.98 660.33,623.6 "/>
    <text font-size="12.8" style="fill: #000000;text-anchor:middle;font-family:monospace;font-style:normal;font-weight:normal" x="723.323" y="627.5">
      <tspan x="723.323" y="627.5">A &lt; B</tspan>
    </text>
  </g>
  <g>
    <line style="fill: none; fill-opacity:0; stroke-width: 2; stroke: #000000" x1="724.378" y1="568.732" x2="723.711" y2="585.492"/>
    <polygon style="fill: #000000" points="723.413,592.986 718.814,582.795 723.711,585.492 728.807,583.192 "/>
    <polygon style="fill: none; fill-opacity:0; stroke-width: 2; stroke: #000000" points="723.413,592.986 718.814,582.795 723.711,585.492 728.807,583.192 "/>
  </g>
  <g>
    <rect style="fill: #ffffff" x="387.844" y="624" width="229.9" height="54"/>
    <rect style="fill: none; fill-opacity:0; stroke-width: 2; stroke: #000000" x="387.844" y="624" width="229.9" height="54"/>
    <text font-size="12.8" style="fill: #000000;text-anchor:middle;font-family:monospace;font-style:normal;font-weight:normal" x="502.794" y="646.9">
      <tspan x="502.794" y="646.9">D = (B-A)/(2*C) - </tspan>
      <tspan x="502.794" y="662.9">sqrt( 1 + ((B_A) / (2*C)^2_</tspan>
    </text>
  </g>
  <g>
    <line style="fill: none; fill-opacity:0; stroke-width: 2; stroke: #000000" x1="503.378" y1="567.732" x2="502.895" y2="614.264"/>
    <polygon style="fill: #000000" points="502.817,621.764 497.921,611.713 502.895,614.264 507.921,611.816 "/>
    <polygon style="fill: none; fill-opacity:0; stroke-width: 2; stroke: #000000" points="502.817,621.764 497.921,611.713 502.895,614.264 507.921,611.816 "/>
  </g>
  <g>
    <rect style="fill: #ffffff" x="817.594" y="598" width="73.35" height="54"/>
    <rect style="fill: none; fill-opacity:0; stroke-width: 2; stroke: #000000" x="817.594" y="598" width="73.35" height="54"/>
    <text font-size="12.8" style="fill: #000000;text-anchor:middle;font-family:monospace;font-style:normal;font-weight:normal" x="854.269" y="620.9">
      <tspan x="854.269" y="620.9">u1 = 1</tspan>
      <tspan x="854.269" y="636.9">u2 = 0</tspan>
    </text>
  </g>
  <g>
    <line style="fill: none; fill-opacity:0; stroke-width: 2; stroke: #000000" x1="786.316" y1="623.6" x2="807.868" y2="624.565"/>
    <polygon style="fill: #000000" points="815.36,624.9 805.147,629.448 807.868,624.565 805.594,619.458 "/>
    <polygon style="fill: none; fill-opacity:0; stroke-width: 2; stroke: #000000" points="815.36,624.9 805.147,629.448 807.868,624.565 805.594,619.458 "/>
  </g>
  <g>
    <rect style="fill: #ffffff" x="820.846" y="512" width="68.2" height="54"/>
    <rect style="fill: none; fill-opacity:0; stroke-width: 2; stroke: #000000" x="820.846" y="512" width="68.2" height="54"/>
    <text font-size="12.8" style="fill: #000000;text-anchor:middle;font-family:monospace;font-style:normal;font-weight:normal" x="854.946" y="534.9">
      <tspan x="854.946" y="534.9">u1 = 0</tspan>
      <tspan x="854.946" y="550.9">u2 = 1</tspan>
    </text>
  </g>
  <g>
    <line style="fill: none; fill-opacity:0; stroke-width: 2; stroke: #000000" x1="783.842" y1="539" x2="811.11" y2="539"/>
    <polygon style="fill: #000000" points="818.61,539 808.61,544 811.11,539 808.61,534 "/>
    <polygon style="fill: none; fill-opacity:0; stroke-width: 2; stroke: #000000" points="818.61,539 808.61,544 811.11,539 808.61,534 "/>
  </g>
  <g>
    <rect style="fill: #ffffff" x="820.02" y="667" width="69.85" height="54"/>
    <rect style="fill: none; fill-opacity:0; stroke-width: 2; stroke: #000000" x="820.02" y="667" width="69.85" height="54"/>
    <text font-size="12.8" style="fill: #000000;text-anchor:middle;font-family:monospace;font-style:normal;font-weight:normal" x="854.945" y="689.9">
      <tspan x="854.945" y="689.9">u1 = 0</tspan>
      <tspan x="854.945" y="705.9">u2 = 0</tspan>
    </text>
  </g>
  <g>
    <polygon style="fill: #ffffff" points="756.947,244.968 825.01,279 756.947,313.031 688.884,279 "/>
    <polygon style="fill: none; fill-opacity:0; stroke-width: 2; stroke: #000000" points="756.947,244.968 825.01,279 756.947,313.031 688.884,279 "/>
    <text font-size="12.8" style="fill: #000000;text-anchor:middle;font-family:monospace;font-style:normal;font-weight:normal" x="756.947" y="282.9">
      <tspan x="756.947" y="282.9">nm1 &gt; 0</tspan>
    </text>
  </g>
  <g>
    <rect style="fill: #ffffff" x="669.948" y="341" width="176" height="38"/>
    <rect style="fill: none; fill-opacity:0; stroke-width: 2; stroke: #000000" x="669.948" y="341" width="176" height="38"/>
    <text font-size="12.8" style="fill: #000000;text-anchor:middle;font-family:monospace;font-style:normal;font-weight:normal" x="757.948" y="363.9">
      <tspan x="757.948" y="363.9">u1 = 1/sqrt(1 + D^2)</tspan>
    </text>
  </g>
  <g>
    <rect style="fill: #ffffff" x="859.948" y="258" width="176" height="38"/>
    <rect style="fill: none; fill-opacity:0; stroke-width: 2; stroke: #000000" x="859.948" y="258" width="176" height="38"/>
    <text font-size="12.8" style="fill: #000000;text-anchor:middle;font-family:monospace;font-style:normal;font-weight:normal" x="947.948" y="280.9">
      <tspan x="947.948" y="280.9">u2 = -1/sqrt(1 +D^2)</tspan>
    </text>
  </g>
  <text font-size="12.8" style="fill: #000000;text-anchor:start;font-family:monospace;font-style:normal;font-weight:normal" x="947.948" y="277">
    <tspan x="947.948" y="277"></tspan>
  </text>
  <g>
    <line style="fill: none; fill-opacity:0; stroke-width: 2; stroke: #000000" x1="756.948" y1="313.032" x2="757.6" y2="331.27"/>
    <polygon style="fill: #000000" points="757.868,338.765 752.514,328.95 757.6,331.27 762.508,328.593 "/>
    <polygon style="fill: none; fill-opacity:0; stroke-width: 2; stroke: #000000" points="757.868,338.765 752.514,328.95 757.6,331.27 762.508,328.593 "/>
  </g>
  <g>
    <line style="fill: none; fill-opacity:0; stroke-width: 2; stroke: #000000" x1="825.01" y1="279" x2="850.228" y2="277.556"/>
    <polygon style="fill: #000000" points="857.716,277.128 848.018,282.691 850.228,277.556 847.446,272.707 "/>
    <polygon style="fill: none; fill-opacity:0; stroke-width: 2; stroke: #000000" points="857.716,277.128 848.018,282.691 850.228,277.556 847.446,272.707 "/>
  </g>
  <g>
    <rect style="fill: #ffffff" x="901.75" y="340" width="91.3" height="41"/>
    <rect style="fill: none; fill-opacity:0; stroke-width: 2; stroke: #000000" x="901.75" y="340" width="91.3" height="41"/>
    <text font-size="12.8" style="fill: #000000;text-anchor:middle;font-family:monospace;font-style:normal;font-weight:normal" x="947.4" y="364.4">
      <tspan x="947.4" y="364.4">u2 = u1*D</tspan>
    </text>
  </g>
  <g>
    <line style="fill: none; fill-opacity:0; stroke-width: 2; stroke: #000000" x1="947.948" y1="296" x2="947.521" y2="330.265"/>
    <polygon style="fill: #000000" points="947.428,337.764 942.553,327.703 947.521,330.265 952.552,327.827 "/>
    <polygon style="fill: none; fill-opacity:0; stroke-width: 2; stroke: #000000" points="947.428,337.764 942.553,327.703 947.521,330.265 952.552,327.827 "/>
  </g>
  <g>
    <line style="fill: none; fill-opacity:0; stroke-width: 2; stroke: #000000" x1="845.948" y1="360" x2="892.014" y2="360.413"/>
    <polygon style="fill: #000000" points="899.514,360.48 889.47,365.39 892.014,360.413 889.559,355.391 "/>
    <polygon style="fill: none; fill-opacity:0; stroke-width: 2; stroke: #000000" points="899.514,360.48 889.47,365.39 892.014,360.413 889.559,355.391 "/>
  </g>
  <g>
    <rect style="fill: #ffffff" x="848.85" y="433" width="199.1" height="54"/>
    <rect style="fill: none; fill-opacity:0; stroke-width: 2; stroke: #000000" x="848.85" y="433" width="199.1" height="54"/>
    <text font-size="12.8" style="fill: #000000;text-anchor:middle;font-family:monospace;font-style:normal;font-weight:normal" x="948.4" y="455.9">
      <tspan x="948.4" y="455.9">tangent at currentPixel</tspan>
      <tspan x="948.4" y="471.9">= (u1,u2)</tspan>
    </text>
  </g>
  <g>
    <line style="fill: none; fill-opacity:0; stroke-width: 2; stroke: #000000" x1="947.4" y1="381" x2="948.213" y2="423.266"/>
    <polygon style="fill: #000000" points="948.357,430.764 943.166,420.862 948.213,423.266 953.164,420.67 "/>
    <polygon style="fill: none; fill-opacity:0; stroke-width: 2; stroke: #000000" points="948.357,430.764 943.166,420.862 948.213,423.266 953.164,420.67 "/>
  </g>
  <g>
    <line style="fill: none; fill-opacity:0; stroke-width: 2; stroke: #000000" x1="135" y1="533" x2="135" y2="561.264"/>
    <polygon style="fill: #000000" points="135,568.764 130,558.764 135,561.264 140,558.764 "/>
    <polygon style="fill: none; fill-opacity:0; stroke-width: 2; stroke: #000000" points="135,568.764 130,558.764 135,561.264 140,558.764 "/>
  </g>
  <g>
    <line style="fill: none; fill-opacity:0; stroke-width: 2; stroke: #000000" x1="135" y1="612.004" x2="135" y2="632.764"/>
    <polygon style="fill: #000000" points="135,640.264 130,630.264 135,632.764 140,630.264 "/>
    <polygon style="fill: none; fill-opacity:0; stroke-width: 2; stroke: #000000" points="135,640.264 130,630.264 135,632.764 140,630.264 "/>
  </g>
  <g>
    <polyline style="fill: none; fill-opacity:0; stroke-width: 2; stroke: #000000" points="238,530 238,552 144.736,552 "/>
    <polygon style="fill: #000000" points="137.236,552 147.236,547 144.736,552 147.236,557 "/>
    <polygon style="fill: none; fill-opacity:0; stroke-width: 2; stroke: #000000" points="137.236,552 147.236,547 144.736,552 147.236,557 "/>
  </g>
  <g>
    <polyline style="fill: none; fill-opacity:0; stroke-width: 2; stroke: #000000" points="224.174,399.07 224.174,400.25 238,400.25 238,482.264 "/>
    <polygon style="fill: #000000" points="238,489.764 233,479.764 238,482.264 243,479.764 "/>
    <polygon style="fill: none; fill-opacity:0; stroke-width: 2; stroke: #000000" points="238,489.764 233,479.764 238,482.264 243,479.764 "/>
  </g>
  <g>
    <polyline style="fill: none; fill-opacity:0; stroke-width: 2; stroke: #000000" points="228.087,677.5 288.959,677.5 288.959,36 340.094,36 "/>
    <polygon style="fill: #000000" points="347.594,36 337.594,41 340.094,36 337.594,31 "/>
    <polygon style="fill: none; fill-opacity:0; stroke-width: 2; stroke: #000000" points="347.594,36 337.594,41 340.094,36 337.594,31 "/>
  </g>
  <g>
    <line style="fill: none; fill-opacity:0; stroke-width: 2; stroke: #000000" x1="499.56" y1="71" x2="499.905" y2="106.264"/>
    <polygon style="fill: #000000" points="499.978,113.764 494.881,103.813 499.905,106.264 504.88,103.716 "/>
    <polygon style="fill: none; fill-opacity:0; stroke-width: 2; stroke: #000000" points="499.978,113.764 494.881,103.813 499.905,106.264 504.88,103.716 "/>
  </g>
  <g>
    <line style="fill: none; fill-opacity:0; stroke-width: 2; stroke: #000000" x1="500" y1="218" x2="500" y2="249.264"/>
    <polygon style="fill: #000000" points="500,256.764 495,246.764 500,249.264 505,246.764 "/>
    <polygon style="fill: none; fill-opacity:0; stroke-width: 2; stroke: #000000" points="500,256.764 495,246.764 500,249.264 505,246.764 "/>
  </g>
  <g>
    <polyline style="fill: none; fill-opacity:0; stroke-width: 2; stroke: #000000" points="617.744,651 646.81,651 646.81,279 679.148,279 "/>
    <polygon style="fill: #000000" points="686.648,279 676.648,284 679.148,279 676.648,274 "/>
    <polygon style="fill: none; fill-opacity:0; stroke-width: 2; stroke: #000000" points="686.648,279 676.648,284 679.148,279 676.648,274 "/>
  </g>
  <g>
    <polyline style="fill: none; fill-opacity:0; stroke-width: 2; stroke: #000000" points="890.944,625 948.4,625 948.4,496.736 "/>
    <polygon style="fill: #000000" points="948.4,489.236 953.4,499.236 948.4,496.736 943.4,499.236 "/>
    <polygon style="fill: none; fill-opacity:0; stroke-width: 2; stroke: #000000" points="948.4,489.236 953.4,499.236 948.4,496.736 943.4,499.236 "/>
  </g>
  <g>
    <polyline style="fill: none; fill-opacity:0; stroke-width: 2; stroke: #000000" points="889.87,694 948.4,694 948.4,496.736 "/>
    <polygon style="fill: #000000" points="948.4,489.236 953.4,499.236 948.4,496.736 943.4,499.236 "/>
    <polygon style="fill: none; fill-opacity:0; stroke-width: 2; stroke: #000000" points="948.4,489.236 953.4,499.236 948.4,496.736 943.4,499.236 "/>
  </g>
  <g>
    <polyline style="fill: none; fill-opacity:0; stroke-width: 2; stroke: #000000" points="889.046,539 948.4,539 948.4,496.736 "/>
    <polygon style="fill: #000000" points="948.4,489.236 953.4,499.236 948.4,496.736 943.4,499.236 "/>
    <polygon style="fill: none; fill-opacity:0; stroke-width: 2; stroke: #000000" points="948.4,489.236 953.4,499.236 948.4,496.736 943.4,499.236 "/>
  </g>
  <g>
    <polyline style="fill: none; fill-opacity:0; stroke-width: 2; stroke: #000000" points="1047.95,460 1054.81,458.5 1055.81,731.5 335.766,730.5 336.81,616.25 298.062,616.45 "/>
    <polygon style="fill: #000000" points="290.562,616.488 300.536,611.437 298.062,616.45 300.588,621.437 "/>
    <polygon style="fill: none; fill-opacity:0; stroke-width: 2; stroke: #000000" points="290.562,616.488 300.536,611.437 298.062,616.45 300.588,621.437 "/>
  </g>
  <g>
    <polygon style="fill: #ffffff" points="735.018,10.5 830.265,10.5 810.611,64.5 715.364,64.5 "/>
    <polygon style="fill: none; fill-opacity:0; stroke-width: 2; stroke: #000000" points="735.018,10.5 830.265,10.5 810.611,64.5 715.364,64.5 "/>
    <text font-size="12.8" style="fill: #000000;text-anchor:middle;font-family:monospace;font-style:normal;font-weight:normal" x="772.815" y="33.4">
      <tspan x="772.815" y="33.4">return</tspan>
      <tspan x="772.815" y="49.4">tangents</tspan>
    </text>
  </g>
  <g>
    <line style="fill: none; fill-opacity:0; stroke-width: 2; stroke: #000000" x1="649.29" y1="36" x2="715.458" y2="37.3076"/>
    <polygon style="fill: #000000" points="722.956,37.4558 712.86,42.2573 715.458,37.3076 713.057,32.2592 "/>
    <polygon style="fill: none; fill-opacity:0; stroke-width: 2; stroke: #000000" points="722.956,37.4558 712.86,42.2573 715.458,37.3076 713.057,32.2592 "/>
  </g>
  <g>
    <path style="fill: #ffffff" d="M 745.639 106.5 L 775.99,106.5 C 780.18,106.5 783.577,115.454 783.577,126.5 C 783.577,137.546 780.18,146.5 775.99,146.5 L 745.639,146.5 C 741.449,146.5 738.052,137.546 738.052,126.5 C 738.052,115.454 741.449,106.5 745.639,106.5z"/>
    <path style="fill: none; fill-opacity:0; stroke-width: 2; stroke: #000000" d="M 745.639 106.5 L 775.99,106.5 C 780.18,106.5 783.577,115.454 783.577,126.5 C 783.577,137.546 780.18,146.5 775.99,146.5 L 745.639,146.5 C 741.449,146.5 738.052,137.546 738.052,126.5 C 738.052,115.454 741.449,106.5 745.639,106.5"/>
    <text font-size="12.8" style="fill: #000000;text-anchor:middle;font-family:monospace;font-style:normal;font-weight:normal" x="760.815" y="130.5">
      <tspan x="760.815" y="130.5">End</tspan>
    </text>
  </g>
  <g>
    <line style="fill: none; fill-opacity:0; stroke-width: 2; stroke: #000000" x1="762.988" y1="64.5" x2="761.317" y2="96.7769"/>
    <polygon style="fill: #000000" points="760.93,104.267 756.453,94.0218 761.317,96.7769 766.44,94.5388 "/>
    <polygon style="fill: none; fill-opacity:0; stroke-width: 2; stroke: #000000" points="760.93,104.267 756.453,94.0218 761.317,96.7769 766.44,94.5388 "/>
  </g>
  <text font-size="12.8" style="fill: #000000;text-anchor:start;font-family:monospace;font-style:normal;font-weight:normal" x="510.446" y="93.5">
    <tspan x="510.446" y="93.5">Loop</tspan>
  </text>
  <text font-size="12.8" style="fill: #000000;text-anchor:start;font-family:monospace;font-style:normal;font-weight:normal" x="675.446" y="21.5">
    <tspan x="675.446" y="21.5">Exit</tspan>
  </text>
  <text font-size="12.8" style="fill: #000000;text-anchor:start;font-family:monospace;font-style:normal;font-weight:normal" x="567.446" y="524.5">
    <tspan x="567.446" y="524.5">True</tspan>
  </text>
  <text font-size="12.8016" style="fill: #000000;text-anchor:start;font-family:monospace;font-style:normal;font-weight:normal" x="517.446" y="604.5">
    <tspan x="517.446" y="604.5">False</tspan>
  </text>
  <text font-size="12.8" style="fill: #000000;text-anchor:start;font-family:monospace;font-style:normal;font-weight:normal" x="784.818" y="525.5">
    <tspan x="784.818" y="525.5">True</tspan>
  </text>
  <text font-size="12.8" style="fill: #000000;text-anchor:start;font-family:monospace;font-style:normal;font-weight:normal" x="784.818" y="608.5">
    <tspan x="784.818" y="608.5">True</tspan>
  </text>
  <g>
    <polyline style="fill: none; fill-opacity:0; stroke-width: 2; stroke: #000000" points="723.324,651.98 724.818,651.98 724.818,694 810.284,694 "/>
    <polygon style="fill: #000000" points="817.784,694 807.784,699 810.284,694 807.784,689 "/>
    <polygon style="fill: none; fill-opacity:0; stroke-width: 2; stroke: #000000" points="817.784,694 807.784,699 810.284,694 807.784,689 "/>
  </g>
  <text font-size="12.8" style="fill: #000000;text-anchor:start;font-family:monospace;font-style:normal;font-weight:normal" x="766.818" y="684.5">
    <tspan x="766.818" y="684.5">False</tspan>
  </text>
  <text font-size="12.8" style="fill: #000000;text-anchor:start;font-family:monospace;font-style:normal;font-weight:normal" x="666.818" y="586.5">
    <tspan x="666.818" y="586.5">False</tspan>
  </text>
  <text font-size="12.8" style="fill: #000000;text-anchor:start;font-family:monospace;font-style:normal;font-weight:normal" x="698.818" y="330.5">
    <tspan x="698.818" y="330.5">True</tspan>
  </text>
  <text font-size="12.8" style="fill: #000000;text-anchor:start;font-family:monospace;font-style:normal;font-weight:normal" x="815.818" y="252.5">
    <tspan x="815.818" y="252.5">False</tspan>
  </text>
</svg>
