<?xml version="1.0" encoding="UTF-8" standalone="no"?>
<!DOCTYPE svg PUBLIC "-//W3C//DTD SVG 1.0//EN" "http://www.w3.org/TR/2001/PR-SVG-20010719/DTD/svg10.dtd">
<svg width="41cm" height="29cm" viewBox="-94 16 810 569" xmlns="http://www.w3.org/2000/svg" xmlns:xlink="http://www.w3.org/1999/xlink">
  <g>
    <path style="fill: #ffffff" d="M 112.75 17 L 157.25,17 C 163.394,17 168.375,25.9543 168.375,37 C 168.375,48.0457 163.394,57 157.25,57 L 112.75,57 C 106.606,57 101.625,48.0457 101.625,37 C 101.625,25.9543 106.606,17 112.75,17z"/>
    <path style="fill: none; fill-opacity:0; stroke-width: 2; stroke: #000000" d="M 112.75 17 L 157.25,17 C 163.394,17 168.375,25.9543 168.375,37 C 168.375,48.0457 163.394,57 157.25,57 L 112.75,57 C 106.606,57 101.625,48.0457 101.625,37 C 101.625,25.9543 106.606,17 112.75,17"/>
    <text font-size="12.8" style="fill: #000000;text-anchor:middle;font-family:monospace;font-style:normal;font-weight:normal" x="135" y="41">
      <tspan x="135" y="41">Start</tspan>
    </text>
  </g>
  <g>
    <polygon style="fill: #ffffff" points="48.5537,96 218.924,96 193.446,166 23.0758,166 "/>
    <polygon style="fill: none; fill-opacity:0; stroke-width: 2; stroke: #000000" points="48.5537,96 218.924,96 193.446,166 23.0758,166 "/>
    <text font-size="12.8" style="fill: #000000;text-anchor:middle;font-family:monospace;font-style:normal;font-weight:normal" x="121" y="118.9">
      <tspan x="121" y="118.9">Take end_pixel_x,</tspan>
      <tspan x="121" y="134.9">end_pixel_y</tspan>
      <tspan x="121" y="150.9">and image size</tspan>
    </text>
  </g>
  <g>
    <line style="fill: none; fill-opacity:0; stroke-width: 2; stroke: #000000" x1="135" y1="57" x2="134.054" y2="86.269"/>
    <polygon style="fill: #000000" points="133.811,93.7651 129.137,83.6087 134.054,86.269 139.132,83.9319 "/>
    <polygon style="fill: none; fill-opacity:0; stroke-width: 2; stroke: #000000" points="133.811,93.7651 129.137,83.6087 134.054,86.269 139.132,83.9319 "/>
  </g>
  <text font-size="12.8" style="fill: #000000;text-anchor:start;font-family:monospace;font-style:normal;font-weight:normal" x="121" y="131">
    <tspan x="121" y="131"></tspan>
  </text>
  <text font-size="12.8" style="fill: #000000;text-anchor:start;font-family:monospace;font-style:normal;font-weight:normal" x="121" y="131">
    <tspan x="121" y="131"></tspan>
  </text>
  <g>
    <rect style="fill: #ffffff" x="41.1" y="202" width="129.8" height="54"/>
    <rect style="fill: none; fill-opacity:0; stroke-width: 2; stroke: #000000" x="41.1" y="202" width="129.8" height="54"/>
    <text font-size="12.8" style="fill: #000000;text-anchor:middle;font-family:monospace;font-style:normal;font-weight:normal" x="106" y="224.9">
      <tspan x="106" y="224.9">y_size, x_size</tspan>
      <tspan x="106" y="240.9">= image size</tspan>
    </text>
  </g>
  <g>
    <line style="fill: none; fill-opacity:0; stroke-width: 2; stroke: #000000" x1="108.261" y1="166" x2="106.61" y2="192.283"/>
    <polygon style="fill: #000000" points="106.14,199.768 101.777,189.475 106.61,192.283 111.757,190.101 "/>
    <polygon style="fill: none; fill-opacity:0; stroke-width: 2; stroke: #000000" points="106.14,199.768 101.777,189.475 106.61,192.283 111.757,190.101 "/>
  </g>
  <text font-size="12.8" style="fill: #000000;text-anchor:start;font-family:monospace;font-style:normal;font-weight:normal" x="121" y="131">
    <tspan x="121" y="131"></tspan>
  </text>
  <g>
    <polygon style="fill: #ffffff" points="107,289.068 306.863,389 107,488.932 -92.8632,389 "/>
    <polygon style="fill: none; fill-opacity:0; stroke-width: 2; stroke: #000000" points="107,289.068 306.863,389 107,488.932 -92.8632,389 "/>
    <text font-size="12.8" style="fill: #000000;text-anchor:middle;font-family:monospace;font-style:normal;font-weight:normal" x="107" y="368.9">
      <tspan x="107" y="368.9">end_pixel_x &gt; mu</tspan>
      <tspan x="107" y="384.9">AND end_pixel_y &gt; mu</tspan>
      <tspan x="107" y="400.9">AND end_pixel_x &lt; x_size - mu</tspan>
      <tspan x="107" y="416.9">AND end_pixel_y &lt; y_size - mu</tspan>
    </text>
  </g>
  <text font-size="12.8" style="fill: #000000;text-anchor:start;font-family:monospace;font-style:normal;font-weight:normal" x="107" y="389">
    <tspan x="107" y="389"></tspan>
  </text>
  <text font-size="12.8" style="fill: #000000;text-anchor:start;font-family:monospace;font-style:normal;font-weight:normal" x="107" y="389">
    <tspan x="107" y="389"></tspan>
  </text>
  <g>
    <line style="fill: none; fill-opacity:0; stroke-width: 2; stroke: #000000" x1="106" y1="256" x2="106.706" y2="279.337"/>
    <polygon style="fill: #000000" points="106.932,286.833 101.632,276.989 106.706,279.337 111.628,276.687 "/>
    <polygon style="fill: none; fill-opacity:0; stroke-width: 2; stroke: #000000" points="106.932,286.833 101.632,276.989 106.706,279.337 111.628,276.687 "/>
  </g>
  <g>
    <polygon style="fill: #ffffff" points="44.5623,530 170.609,530 150.955,584 24.908,584 "/>
    <polygon style="fill: none; fill-opacity:0; stroke-width: 2; stroke: #000000" points="44.5623,530 170.609,530 150.955,584 24.908,584 "/>
    <text font-size="12.8" style="fill: #000000;text-anchor:middle;font-family:monospace;font-style:normal;font-weight:normal" x="97.7587" y="552.9">
      <tspan x="97.7587" y="552.9">return</tspan>
      <tspan x="97.7587" y="568.9">"No Minutia"</tspan>
    </text>
  </g>
  <g>
    <rect style="fill: #ffffff" x="354.696" y="23" width="248.125" height="70"/>
    <rect style="fill: none; fill-opacity:0; stroke-width: 2; stroke: #000000" x="354.696" y="23" width="248.125" height="70"/>
    <line style="fill: none; fill-opacity:0; stroke-width: 2; stroke: #000000" x1="379.509" y1="23" x2="379.509" y2="93"/>
    <line style="fill: none; fill-opacity:0; stroke-width: 2; stroke: #000000" x1="578.009" y1="23" x2="578.009" y2="93"/>
    <text font-size="12.8" style="fill: #000000;text-anchor:middle;font-family:monospace;font-style:normal;font-weight:normal" x="478.759" y="46">
      <tspan x="478.759" y="46">Extend ridge by mu </tspan>
      <tspan x="478.759" y="62">pixels. New pixel </tspan>
      <tspan x="478.759" y="78">co-oridnate is new_co-ord</tspan>
    </text>
  </g>
  <text font-size="12.8" style="fill: #000000;text-anchor:start;font-family:monospace;font-style:normal;font-weight:normal" x="478.759" y="58">
    <tspan x="478.759" y="58"></tspan>
  </text>
  <g>
    <polygon style="fill: #ffffff" points="478.759,117.243 604.272,180 478.759,242.757 353.245,180 "/>
    <polygon style="fill: none; fill-opacity:0; stroke-width: 2; stroke: #000000" points="478.759,117.243 604.272,180 478.759,242.757 353.245,180 "/>
    <text font-size="12.8" style="fill: #000000;text-anchor:middle;font-family:monospace;font-style:normal;font-weight:normal" x="478.759" y="175.9">
      <tspan x="478.759" y="175.9">new_co-ord already</tspan>
      <tspan x="478.759" y="191.9">visited</tspan>
    </text>
  </g>
  <g>
    <polygon style="fill: #ffffff" points="412.714,286 546.461,286 526.807,340 393.06,340 "/>
    <polygon style="fill: none; fill-opacity:0; stroke-width: 2; stroke: #000000" points="412.714,286 546.461,286 526.807,340 393.06,340 "/>
    <text font-size="12.8" style="fill: #000000;text-anchor:middle;font-family:monospace;font-style:normal;font-weight:normal" x="469.761" y="308.9">
      <tspan x="469.761" y="308.9">return</tspan>
      <tspan x="469.761" y="324.9">"Bifurcation"</tspan>
    </text>
  </g>
  <g>
    <polygon style="fill: #ffffff" points="580.714,287 714.461,287 694.807,341 561.06,341 "/>
    <polygon style="fill: none; fill-opacity:0; stroke-width: 2; stroke: #000000" points="580.714,287 714.461,287 694.807,341 561.06,341 "/>
    <text font-size="12.8" style="fill: #000000;text-anchor:middle;font-family:monospace;font-style:normal;font-weight:normal" x="637.761" y="309.9">
      <tspan x="637.761" y="309.9">return</tspan>
      <tspan x="637.761" y="325.9">"Termination"</tspan>
    </text>
  </g>
  <g>
    <path style="fill: #ffffff" d="M 444.586 537 L 474.936,537 C 479.126,537 482.523,545.954 482.523,557 C 482.523,568.046 479.126,577 474.936,577 L 444.586,577 C 440.395,577 436.998,568.046 436.998,557 C 436.998,545.954 440.395,537 444.586,537z"/>
    <path style="fill: none; fill-opacity:0; stroke-width: 2; stroke: #000000" d="M 444.586 537 L 474.936,537 C 479.126,537 482.523,545.954 482.523,557 C 482.523,568.046 479.126,577 474.936,577 L 444.586,577 C 440.395,577 436.998,568.046 436.998,557 C 436.998,545.954 440.395,537 444.586,537"/>
    <text font-size="12.8" style="fill: #000000;text-anchor:middle;font-family:monospace;font-style:normal;font-weight:normal" x="459.761" y="561">
      <tspan x="459.761" y="561">End</tspan>
    </text>
  </g>
  <g>
    <polyline style="fill: none; fill-opacity:0; stroke-width: 2; stroke: #000000" points="306.863,389 328.061,389 328.061,58 344.96,58 "/>
    <polygon style="fill: #000000" points="352.46,58 342.46,63 344.96,58 342.46,53 "/>
    <polygon style="fill: none; fill-opacity:0; stroke-width: 2; stroke: #000000" points="352.46,58 342.46,63 344.96,58 342.46,53 "/>
  </g>
  <g>
    <line style="fill: none; fill-opacity:0; stroke-width: 2; stroke: #000000" x1="478.759" y1="93" x2="478.759" y2="107.507"/>
    <polygon style="fill: #000000" points="478.759,115.007 473.759,105.007 478.759,107.507 483.759,105.007 "/>
    <polygon style="fill: none; fill-opacity:0; stroke-width: 2; stroke: #000000" points="478.759,115.007 473.759,105.007 478.759,107.507 483.759,105.007 "/>
  </g>
  <g>
    <line style="fill: none; fill-opacity:0; stroke-width: 2; stroke: #000000" x1="478.759" y1="242.757" x2="479.401" y2="276.266"/>
    <polygon style="fill: #000000" points="479.545,283.764 474.354,273.862 479.401,276.266 484.352,273.67 "/>
    <polygon style="fill: none; fill-opacity:0; stroke-width: 2; stroke: #000000" points="479.545,283.764 474.354,273.862 479.401,276.266 484.352,273.67 "/>
  </g>
  <g>
    <line style="fill: none; fill-opacity:0; stroke-width: 2; stroke: #000000" x1="107" y1="488.932" x2="107.447" y2="520.265"/>
    <polygon style="fill: #000000" points="107.554,527.764 102.412,517.836 107.447,520.265 112.411,517.694 "/>
    <polygon style="fill: none; fill-opacity:0; stroke-width: 2; stroke: #000000" points="107.554,527.764 102.412,517.836 107.447,520.265 112.411,517.694 "/>
  </g>
  <g>
    <polyline style="fill: none; fill-opacity:0; stroke-width: 2; stroke: #000000" points="604.272,180 604.272,182 647.588,182 647.588,277.264 "/>
    <polygon style="fill: #000000" points="647.588,284.764 642.588,274.764 647.588,277.264 652.588,274.764 "/>
    <polygon style="fill: none; fill-opacity:0; stroke-width: 2; stroke: #000000" points="647.588,284.764 642.588,274.764 647.588,277.264 652.588,274.764 "/>
  </g>
  <g>
    <line style="fill: none; fill-opacity:0; stroke-width: 2; stroke: #000000" x1="160.782" y1="557" x2="427.262" y2="557"/>
    <polygon style="fill: #000000" points="434.762,557 424.762,562 427.262,557 424.762,552 "/>
    <polygon style="fill: none; fill-opacity:0; stroke-width: 2; stroke: #000000" points="434.762,557 424.762,562 427.262,557 424.762,552 "/>
  </g>
  <g>
    <line style="fill: none; fill-opacity:0; stroke-width: 2; stroke: #000000" x1="459.933" y1="340" x2="459.769" y2="527.264"/>
    <polygon style="fill: #000000" points="459.763,534.764 454.771,524.76 459.769,527.264 464.771,524.768 "/>
    <polygon style="fill: none; fill-opacity:0; stroke-width: 2; stroke: #000000" points="459.763,534.764 454.771,524.76 459.769,527.264 464.771,524.768 "/>
  </g>
  <g>
    <polyline style="fill: none; fill-opacity:0; stroke-width: 2; stroke: #000000" points="627.933,341 627.933,557 492.259,557 "/>
    <polygon style="fill: #000000" points="484.759,557 494.759,552 492.259,557 494.759,562 "/>
    <polygon style="fill: none; fill-opacity:0; stroke-width: 2; stroke: #000000" points="484.759,557 494.759,552 492.259,557 494.759,562 "/>
  </g>
  <text font-size="12.8" style="fill: #000000;text-anchor:start;font-family:monospace;font-style:normal;font-weight:normal" x="284.759" y="349">
    <tspan x="284.759" y="349">True</tspan>
  </text>
  <text font-size="12.8" style="fill: #000000;text-anchor:start;font-family:monospace;font-style:normal;font-weight:normal" x="128.759" y="508">
    <tspan x="128.759" y="508">False</tspan>
  </text>
  <text font-size="12.8" style="fill: #000000;text-anchor:start;font-family:monospace;font-style:normal;font-weight:normal" x="637.761" y="314">
    <tspan x="637.761" y="314"></tspan>
  </text>
  <text font-size="12.8" style="fill: #000000;text-anchor:start;font-family:monospace;font-style:normal;font-weight:normal" x="509.063" y="265">
    <tspan x="509.063" y="265">True</tspan>
  </text>
  <text font-size="12.8" style="fill: #000000;text-anchor:start;font-family:monospace;font-style:normal;font-weight:normal" x="661.063" y="264">
    <tspan x="661.063" y="264">False</tspan>
  </text>
</svg>
